<svg width="23" height="24" viewBox="0 0 23 24" fill="none" xmlns="http://www.w3.org/2000/svg">
<g clip-path="url(#clip0_628_269)">
<path d="M13.6133 10.7091C13.343 10.4492 12.9264 10.4725 12.683 10.7611L11.8015 11.8061C11.5581 12.0947 11.5799 12.5393 11.8503 12.7991C12.1206 13.0589 12.5371 13.0357 12.7805 12.7471L13.662 11.7021C13.9054 11.4135 13.8836 10.9689 13.6133 10.7091Z" fill="#EB1922"/>
<path d="M22.2714 20.6818H16.7239L20.8041 15.8446C21.8171 14.6436 21.9339 12.8685 21.0881 11.5282L19.4902 8.99588L20.0275 8.3588C21.2456 6.91486 21.1366 4.69402 19.7838 3.39375L18.8048 2.45278C17.9951 1.67447 16.7432 1.74459 16.014 2.60892L15.5733 3.13139C14.4936 2.09372 12.8245 2.18714 11.8523 3.33956C10.8779 4.49484 10.9651 6.27136 12.0473 7.31156L7.63994 12.5368C6.56027 11.4991 4.89107 11.5925 3.91894 12.745C2.94453 13.9002 3.0317 15.6768 4.11396 16.717L3.67321 17.2395C2.94242 18.1059 3.00772 19.4384 3.81944 20.2186L4.30142 20.6818H1.10571C0.741936 20.6818 0.447021 20.9966 0.447021 21.3849C0.447021 21.7733 0.741936 22.0881 1.10571 22.0881C2.11305 22.0881 21.2919 22.0881 22.2714 22.0881C22.6352 22.0881 22.9301 21.7733 22.9301 21.3849C22.9301 20.9966 22.6352 20.6818 22.2714 20.6818ZM19.9955 12.3138C20.503 13.1181 20.4329 14.1831 19.8251 14.9037L18.1163 16.9294L15.1794 14.1066C17.3519 11.5309 16.4209 12.6346 18.5816 10.0731L19.9955 12.3138ZM12.8313 4.28058C13.3175 3.70411 14.1522 3.6578 14.6918 4.17647C15.2316 4.69533 15.2754 5.58623 14.7893 6.16247C14.3013 6.74114 13.4688 6.78563 12.9289 6.26653C12.3878 5.74645 12.3441 4.85822 12.8313 4.28058ZM4.89792 13.686C5.38412 13.1095 6.21876 13.0632 6.7584 13.5818C7.29821 14.1007 7.34195 14.9916 6.85588 15.5678C6.36991 16.1441 5.53522 16.1908 4.99545 15.672C4.45432 15.1519 4.41067 14.2636 4.89792 13.686ZM7.10561 20.6534C6.80591 20.6701 6.51328 20.6154 6.24445 20.4961L6.61019 20.0625C6.8536 19.7739 6.83177 19.3293 6.56145 19.0695C6.29113 18.8097 5.87462 18.8331 5.63117 19.1215L5.19042 19.644L4.70093 19.1736C4.43039 18.9135 4.40852 18.4694 4.65223 18.1806L5.33002 17.377C6.23057 17.5794 7.18979 17.2737 7.83491 16.5089C8.48599 15.737 8.66103 14.6829 8.3817 13.759L13.2622 7.97297C14.1609 8.17528 15.1181 7.87425 15.7684 7.10344C16.4194 6.33155 16.5944 5.27752 16.3151 4.35361L16.993 3.54989C17.2361 3.26175 17.6535 3.23845 17.9233 3.49781L18.4128 3.9683L17.972 4.49077C17.7286 4.77933 17.7504 5.22394 18.0207 5.48377C18.291 5.74359 18.7076 5.7203 18.951 5.43173L19.3168 4.99814C19.7013 5.75147 19.6314 6.72684 19.0485 7.41773L8.47067 19.9583C8.11748 20.3771 7.63269 20.6239 7.10561 20.6534ZM9.63316 20.6818L9.98705 20.2622L10.7274 20.6818H9.63316ZM13.1311 20.4519L10.8957 19.1851L14.2979 15.1516L17.2348 17.9745L15.5261 20.0002C14.9089 20.7319 13.9187 20.8983 13.1311 20.4519Z" fill="#EB1922"/>
</g>
<defs>
<clipPath id="clip0_628_269">
<rect width="22.4831" height="24" fill="white" transform="translate(0.447021)"/>
</clipPath>
</defs>
</svg>
