<svg width="18" height="18" viewBox="0 0 18 18" fill="none" xmlns="http://www.w3.org/2000/svg">
<g clip-path="url(#clip0_62_799)">
<path d="M17.1598 2.31328H8.00859C7.54102 0.833206 5.9625 0.0105496 4.47891 0.478128C3.60352 0.752347 2.91797 1.43789 2.64375 2.31328H0.840234C0.376172 2.31328 0 2.68946 0 3.15352C0 3.61758 0.376172 3.99375 0.840234 3.99375H2.64375C3.10781 5.47383 4.68633 6.3 6.16641 5.83594C7.04531 5.56172 7.73438 4.87266 8.00859 3.99375H17.1633C17.6273 3.99375 18.0035 3.61758 18.0035 3.15352C18.0035 2.68946 17.6238 2.31328 17.1598 2.31328ZM5.32617 4.34532C4.66524 4.34532 4.13086 3.81094 4.12734 3.15352C4.12383 2.4961 4.66172 1.95821 5.31914 1.95469C5.98008 1.95469 6.51445 2.48907 6.51797 3.14649C6.51797 3.46289 6.39492 3.76524 6.16992 3.99024C5.94844 4.21875 5.64258 4.34532 5.32617 4.34532Z" fill="#303030"/>
<path d="M0 9C0 9.46406 0.376172 9.84023 0.840234 9.84023H9.99492C10.459 11.3203 12.0375 12.1465 13.5176 11.6824C14.3965 11.4082 15.0855 10.7191 15.3598 9.84023H17.1633C17.6273 9.84023 18.0035 9.46406 18.0035 9C18.0035 8.53594 17.6273 8.15977 17.1633 8.15977H15.3598C14.8922 6.67969 13.3137 5.85703 11.8301 6.32461C10.9547 6.59883 10.2691 7.28438 9.99492 8.15977H0.840234C0.376172 8.15977 0 8.53594 0 9ZM11.8301 9.84023C11.3695 9.37266 11.373 8.62031 11.8406 8.15625C12.3082 7.6957 13.0605 7.69922 13.5246 8.1668C13.9887 8.63438 13.9816 9.38672 13.5141 9.85078C13.2926 10.0723 12.9902 10.1953 12.6773 10.1953C12.3574 10.1918 12.0516 10.0652 11.8301 9.84023Z" fill="#303030"/>
<path d="M17.1598 14.0098H8.00859C7.54102 12.5297 5.9625 11.707 4.47891 12.1746C3.60352 12.4488 2.91797 13.1344 2.64375 14.0098H0.840234C0.376172 14.0098 0 14.3824 0 14.8465C0 15.3106 0.376172 15.6867 0.840234 15.6867H2.64375C3.10781 17.1668 4.68633 17.993 6.16641 17.5289C7.04531 17.2547 7.73438 16.5656 8.00859 15.6867H17.1633C17.6273 15.6867 18.0035 15.3106 18.0035 14.8465C18.0035 14.3824 17.6238 14.0098 17.1598 14.0098ZM5.32617 16.0383C4.66524 16.0383 4.13086 15.5039 4.12734 14.8465C4.12383 14.1891 4.66172 13.6512 5.31914 13.6477C5.97656 13.6441 6.51445 14.182 6.51797 14.8395C6.51797 15.1559 6.39492 15.4582 6.16992 15.6832C5.94844 15.9117 5.64258 16.0383 5.32617 16.0383Z" fill="#303030"/>
</g>
<defs>
<clipPath id="clip0_62_799">
<rect width="18" height="18" fill="white"/>
</clipPath>
</defs>
</svg>
