<svg width="60" height="60" viewBox="0 0 60 60" fill="none" xmlns="http://www.w3.org/2000/svg">
<path d="M54.4321 4.6875H5.5093C3.48953 4.6875 1.8457 6.33133 1.8457 8.3511V51.2108C1.8457 53.2309 3.48953 54.8744 5.5093 54.8744H54.4321C56.4519 54.8744 58.0957 53.2309 58.0957 51.2108V39.2738C58.0957 38.6672 57.6041 38.1752 56.9971 38.1752C56.3901 38.1752 55.8984 38.6672 55.8984 39.2738V51.2108C55.8984 52.0193 55.2406 52.6772 54.4321 52.6772H5.5093C4.70078 52.6772 4.04297 52.0193 4.04297 51.2108V16.527H55.8984V26.7494C55.8984 27.3564 56.3901 27.8481 56.9971 27.8481C57.6041 27.8481 58.0957 27.3564 58.0957 26.7494V8.3511C58.0957 6.33133 56.4519 4.6875 54.4321 4.6875ZM4.04297 14.3297V8.3511C4.04297 7.54257 4.70078 6.88477 5.5093 6.88477H54.4321C55.2406 6.88477 55.8984 7.54257 55.8984 8.3511V14.3297H4.04297Z" fill="white"/>
<path d="M10.8905 11.7061H9.93851C9.33186 11.7061 8.83987 11.2141 8.83987 10.6074C8.83987 10.0004 9.33186 9.50879 9.93851 9.50879H10.8905C11.4972 9.50879 11.9892 10.0004 11.9892 10.6074C11.9892 11.2141 11.4972 11.7061 10.8905 11.7061Z" fill="white"/>
<path d="M16.3106 11.7061H15.3586C14.7519 11.7061 14.2599 11.2141 14.2599 10.6074C14.2599 10.0004 14.7519 9.50879 15.3586 9.50879H16.3106C16.9176 9.50879 17.4092 10.0004 17.4092 10.6074C17.4092 11.2141 16.9176 11.7061 16.3106 11.7061Z" fill="white"/>
<path d="M21.7306 11.7061H20.7782C20.1719 11.7061 19.6796 11.2141 19.6796 10.6074C19.6796 10.0004 20.1719 9.50879 20.7782 9.50879H21.7306C22.3373 9.50879 22.8292 10.0004 22.8292 10.6074C22.8292 11.2141 22.3373 11.7061 21.7306 11.7061Z" fill="white"/>
<path d="M45.5356 11.7061H27.4442C26.8375 11.7061 26.3456 11.2141 26.3456 10.6074C26.3456 10.0004 26.8375 9.50879 27.4442 9.50879H45.5356C46.1426 9.50879 46.6342 10.0004 46.6342 10.6074C46.6342 11.2141 46.1426 11.7061 45.5356 11.7061Z" fill="white"/>
<path d="M50.0032 11.7064C49.9308 11.7064 49.8594 11.6985 49.7876 11.6841C49.7172 11.67 49.6482 11.6494 49.5827 11.6219C49.5164 11.5945 49.4525 11.5602 49.3925 11.5207C49.3327 11.4812 49.2771 11.4348 49.2256 11.3844C49.1748 11.3339 49.1298 11.2769 49.089 11.2172C49.0495 11.1571 49.0155 11.0932 48.988 11.0273C48.9606 10.9614 48.9396 10.8924 48.9255 10.822C48.9111 10.7506 48.9046 10.6788 48.9046 10.6078C48.9046 10.5353 48.9111 10.4636 48.9255 10.3922C48.9396 10.3218 48.9606 10.2538 48.988 10.1869C49.0155 10.1209 49.0495 10.0571 49.089 9.99803C49.1298 9.93726 49.1748 9.88165 49.2256 9.8298C49.2771 9.77934 49.3327 9.73436 49.3925 9.6935C49.4525 9.65402 49.5164 9.62038 49.5827 9.59291C49.6482 9.56544 49.7172 9.54416 49.7876 9.53008C49.9298 9.50124 50.0757 9.50124 50.2171 9.53008C50.2878 9.54416 50.3569 9.56544 50.4228 9.59291C50.489 9.62038 50.5536 9.65402 50.613 9.6935C50.6734 9.73436 50.7294 9.77934 50.7798 9.8298C50.8306 9.88165 50.8763 9.93726 50.9161 9.99803C50.956 10.0571 50.9896 10.1209 51.0171 10.1869C51.0445 10.2538 51.0658 10.3218 51.0799 10.3922C51.094 10.4636 51.1019 10.5353 51.1019 10.6078C51.1019 10.6788 51.094 10.7506 51.0799 10.822C51.0658 10.8924 51.0445 10.9614 51.0171 11.0273C50.9896 11.0932 50.956 11.1571 50.9161 11.2172C50.8763 11.2769 50.8306 11.3339 50.7798 11.3844C50.7294 11.4348 50.6724 11.4812 50.613 11.5207C50.5526 11.5602 50.489 11.5945 50.4228 11.6219C50.3569 11.6494 50.2878 11.67 50.2171 11.6841C50.1461 11.6985 50.0743 11.7064 50.0032 11.7064Z" fill="white"/>
<path d="M56.9971 34.272C56.9257 34.272 56.8532 34.2644 56.7828 34.2503C56.7125 34.2359 56.6434 34.215 56.5775 34.1875C56.5102 34.1601 56.4464 34.1261 56.3873 34.0866C56.3269 34.0471 56.2709 34.0007 56.2205 33.9503C56.1697 33.9002 56.1237 33.8439 56.0842 33.7834C56.0443 33.724 56.0104 33.6602 55.9829 33.5932C55.9554 33.5277 55.9335 33.458 55.9204 33.3879C55.906 33.3175 55.8984 33.2451 55.8984 33.1733C55.8984 33.1023 55.906 33.0298 55.9204 32.9595C55.9335 32.8891 55.9554 32.8197 55.9829 32.7541C56.0104 32.6872 56.0443 32.6233 56.0842 32.5639C56.1237 32.5035 56.1697 32.4472 56.2205 32.3971C56.2709 32.3466 56.3269 32.3003 56.3873 32.2598C56.4464 32.2213 56.5102 32.1873 56.5765 32.1599C56.6434 32.1324 56.7125 32.1104 56.7828 32.097C56.9246 32.0685 57.0709 32.0685 57.2113 32.097C57.2817 32.1104 57.3507 32.1324 57.4166 32.1599C57.4839 32.1873 57.5478 32.2213 57.6068 32.2598C57.6672 32.3003 57.7232 32.3466 57.7737 32.3971C57.9783 32.6014 58.0957 32.8846 58.0957 33.1733C58.0957 33.2451 58.0892 33.3175 58.0748 33.3879C58.0607 33.4583 58.0387 33.5277 58.0112 33.5932C57.9838 33.6602 57.9498 33.724 57.91 33.7834C57.8705 33.8439 57.8245 33.8995 57.7737 33.9503C57.7232 34.0007 57.6672 34.0471 57.6068 34.0866C57.5478 34.1261 57.4839 34.1601 57.4166 34.1875C57.3507 34.215 57.2817 34.2359 57.2113 34.2503C57.1409 34.2644 57.0685 34.272 56.9971 34.272Z" fill="white"/>
<path d="M19.1416 47.7567C18.1951 47.7567 17.3055 47.3879 16.6367 46.7188L8.43887 38.5213C7.76973 37.8521 7.401 36.9626 7.401 36.016C7.401 35.0702 7.76973 34.1806 8.43887 33.5115L16.6367 25.3136C17.3059 24.6445 18.1951 24.2761 19.1416 24.2761C20.0878 24.2761 20.9774 24.6445 21.6465 25.314C22.3153 25.9824 22.6837 26.8723 22.6837 27.8185C22.6837 28.7647 22.3153 29.6539 21.6465 30.3234L15.9532 36.016L21.6465 41.7094C22.3153 42.3785 22.684 43.2681 22.684 44.2142C22.684 45.1604 22.3153 46.0497 21.6465 46.7188C20.9774 47.3879 20.0878 47.7567 19.1416 47.7567ZM19.1416 26.4734C18.7822 26.4734 18.4447 26.6135 18.1906 26.8675L9.9924 35.065C9.73834 35.3191 9.59827 35.6569 9.59827 36.016C9.59827 36.3758 9.73834 36.7137 9.9924 36.967L18.1906 45.1653C18.4447 45.4193 18.7818 45.5594 19.1416 45.5594C19.5007 45.5594 19.8386 45.4193 20.0926 45.1653C20.3467 44.9112 20.4864 44.5734 20.4864 44.2142C20.4864 43.8551 20.3467 43.5173 20.0926 43.2632L13.622 36.7933C13.416 36.587 13.3007 36.3075 13.3007 36.016C13.3007 35.7253 13.416 35.4458 13.622 35.2394L20.0926 28.7695C20.3467 28.5155 20.4864 28.1776 20.4864 27.8185C20.4864 27.4594 20.3467 27.1216 20.0926 26.8675C19.8386 26.6135 19.5007 26.4734 19.1416 26.4734Z" fill="white"/>
<path d="M40.7998 47.7567C39.8536 47.7567 38.9641 47.3879 38.2956 46.7188C37.6265 46.0497 37.2578 45.1604 37.2578 44.2142C37.2578 43.2681 37.6265 42.3785 38.2956 41.7094L43.9886 36.016L38.2956 30.3234C37.6265 29.6543 37.2578 28.7644 37.2578 27.8185C37.2578 26.8723 37.6265 25.9824 38.2956 25.3136C38.9644 24.6445 39.8543 24.2761 40.7998 24.2761C41.7464 24.2761 42.6359 24.6445 43.305 25.3136L51.5026 33.5115C52.1717 34.1806 52.5404 35.0702 52.5404 36.016C52.5404 36.9626 52.1717 37.8521 51.5026 38.5213L43.305 46.7188C42.6359 47.3879 41.7464 47.7567 40.7998 47.7567ZM40.7998 26.4734C40.4407 26.4734 40.1029 26.6135 39.8488 26.8675C39.5947 27.1216 39.455 27.4594 39.455 27.8185C39.455 28.1776 39.5947 28.5155 39.8488 28.7695L46.3194 35.2394C46.5254 35.4458 46.6408 35.7253 46.6408 36.016C46.6408 36.3075 46.5254 36.587 46.3194 36.7933L39.8488 43.2632C39.5947 43.5173 39.455 43.8551 39.455 44.2142C39.455 44.5734 39.5947 44.9112 39.8488 45.1653C40.1029 45.4193 40.4407 45.5594 40.7998 45.5594C41.1596 45.5594 41.4968 45.4193 41.7508 45.1653L49.949 36.967C50.2031 36.7137 50.3432 36.3758 50.3432 36.016C50.3432 35.6569 50.2031 35.3191 49.949 35.065L41.7515 26.8675C41.4968 26.6135 41.1593 26.4734 40.7998 26.4734Z" fill="white"/>
<path d="M28.4374 47.2949C28.1731 47.2949 27.9077 47.2647 27.6485 47.2056C25.7441 46.7717 24.5476 44.8693 24.9815 42.9649L28.5064 27.4941C28.9401 25.5893 30.8424 24.3929 32.7468 24.8268C33.669 25.0373 34.4548 25.5941 34.9588 26.3951C35.4622 27.1957 35.6239 28.145 35.4138 29.0672L31.8892 44.5387C31.5191 46.1612 30.0998 47.2949 28.4374 47.2949ZM31.9599 26.9359C31.3461 26.9359 30.7906 27.3592 30.6488 27.982L27.1239 43.4531C26.9594 44.1761 27.4133 44.8985 28.1367 45.0633C28.2362 45.086 28.3372 45.0976 28.4374 45.0976C29.0578 45.0976 29.6085 44.6571 29.7469 44.0505L33.2714 28.5793C33.3511 28.2291 33.29 27.8687 33.0987 27.5648C32.9075 27.2606 32.6091 27.0495 32.259 26.9695C32.1584 26.9465 32.0585 26.9359 31.9599 26.9359Z" fill="white"/>
</svg>
