<svg width="11" height="11" viewBox="0 0 11 11" fill="none" xmlns="http://www.w3.org/2000/svg">
<g clip-path="url(#clip0_33_718)">
<path d="M9.39147 1.61052C7.24675 -0.534196 3.75591 -0.534196 1.61119 1.61052C0.572285 2.64984 0 4.03136 0 5.50065C0 6.96994 0.572285 8.35146 1.61119 9.39037C2.68377 10.4629 4.09256 10.999 5.50132 10.999C6.91009 10.999 8.3189 10.4629 9.39145 9.39037C11.5362 7.24565 11.5362 3.75565 9.39147 1.61052ZM8.78891 8.78782C6.97615 10.6006 4.02649 10.6006 2.21373 8.78782C1.33591 7.91 0.852251 6.7424 0.852251 5.50065C0.852251 4.25891 1.33591 3.09131 2.21373 2.21306C4.02649 0.400297 6.97615 0.400727 8.78891 2.21306C10.6012 4.02582 10.6012 6.97548 8.78891 8.78782Z" fill="#F72525"/>
<path d="M7.33754 6.67798L6.13116 5.47332L7.33754 4.26866C7.50372 4.10247 7.50372 3.83273 7.33797 3.6661C7.17136 3.49906 6.90162 3.49949 6.735 3.66567L5.52779 4.87119L4.32057 3.66567C4.15395 3.49949 3.88421 3.49906 3.7176 3.6661C3.55142 3.83271 3.55142 4.10245 3.71803 4.26866L4.92441 5.47332L3.71803 6.67798C3.55142 6.84416 3.55142 7.1139 3.7176 7.28054C3.8007 7.36405 3.91021 7.40538 4.01931 7.40538C4.12841 7.40538 4.23749 7.36362 4.32059 7.28094L5.52781 6.07542L6.73502 7.28094C6.81813 7.36405 6.9272 7.40538 7.0363 7.40538C7.1454 7.40538 7.25491 7.36362 7.33801 7.28054C7.50415 7.1139 7.50415 6.84416 7.33754 6.67798Z" fill="#F72525"/>
</g>
<defs>
<clipPath id="clip0_33_718">
<rect width="11" height="11" fill="white"/>
</clipPath>
</defs>
</svg>
