<svg width="52" height="56" viewBox="0 0 52 56" fill="none" xmlns="http://www.w3.org/2000/svg">
<path d="M46.9097 7.28248H46.2452C47.5118 5.22047 47.0441 2.45214 45.0114 0.943994C42.8212 -0.680849 39.7088 -0.157828 38.1803 2.12631L34.73 7.28259H5.09032C2.65404 7.28259 0.671982 9.26464 0.671982 11.7009V39.9491C0.671982 42.3854 2.65404 44.3674 5.09032 44.3674H22.2525L20.9557 49.8139H18.157C16.333 49.8139 14.849 51.2977 14.849 53.1217V53.8124H11.3988C10.7948 53.8124 10.3051 54.3022 10.3051 54.9062C10.3051 55.5101 10.7948 55.9999 11.3988 55.9999H40.6013C41.2053 55.9999 41.695 55.5101 41.695 54.9062C41.695 54.3022 41.2053 53.8124 40.6013 53.8124H37.1511V53.1217C37.1511 51.2977 35.6671 49.8139 33.8431 49.8139H31.0444L29.7477 44.3674H46.9098C49.3461 44.3674 51.3281 42.3854 51.3281 39.9491V33.7334V11.7008C51.3281 9.26453 49.3461 7.28248 46.9097 7.28248ZM31.2385 26.5101C29.5285 27.7072 26.3248 26.0801 23.2655 27.7126C22.519 23.8347 22.9896 20.1877 26.8751 19.3827C27.3772 19.2781 27.9179 19.2307 28.3781 19.2399C29.6932 20.2156 31.0234 21.2025 32.3348 22.1756C32.9089 23.8455 32.6934 25.4917 31.2385 26.5101ZM32.3408 14.7867L35.4368 17.0837L33.0559 19.9866C32.0757 19.2594 31.2331 18.6342 30.2529 17.9069C30.4564 17.6027 32.1547 15.0646 32.3408 14.7867ZM39.9984 3.34287C40.8268 2.10466 42.5163 1.81657 43.708 2.70085C44.9002 3.58524 45.1137 5.28555 44.169 6.43736C42.4929 8.48077 38.508 13.3392 36.8255 15.3905L33.5585 12.9666L39.9984 3.34287ZM34.9635 53.1217V53.8124H17.0365V53.1217C17.0365 52.504 17.5391 52.0013 18.157 52.0013H33.843C34.4609 52.0013 34.9635 52.504 34.9635 53.1217ZM28.7957 49.8139H23.2043L24.501 44.3674H27.499L28.7957 49.8139ZM49.1407 39.9491C49.1407 41.1792 48.1399 42.18 46.9098 42.18C45.1736 42.18 7.04251 42.18 5.09043 42.18C3.86031 42.18 2.85955 41.1792 2.85955 39.9491V34.8272H5.98499C6.58905 34.8272 7.07872 34.3374 7.07872 33.7334C7.07872 33.1295 6.58905 32.6397 5.98499 32.6397H2.85933V11.7008C2.85933 10.4707 3.86009 9.46994 5.09021 9.46994H33.2663C32.2185 11.0358 29.1616 15.6041 28.1934 17.051C26.05 17.0704 23.9101 17.8171 22.5093 19.4524C20.603 21.6776 20.2681 25.174 21.5139 29.8445C21.7268 30.6431 22.7233 30.9292 23.3263 30.3533C26.1543 27.651 29.6766 30.5986 32.8308 28.0456C34.7562 26.487 35.2118 24.0093 34.4858 21.6924C35.4672 20.4958 43.527 10.6693 44.5107 9.46994H46.9096C48.1397 9.46994 49.1405 10.4707 49.1405 11.7008V32.6396H14.7346C14.1305 32.6396 13.6409 33.1294 13.6409 33.7333C13.6409 34.3373 14.1305 34.827 14.7346 34.827H49.1407V39.9491Z" fill="white"/>
<path d="M10.1486 32.6608C9.62208 32.7684 9.26923 33.2235 9.26923 33.7339C9.26923 34.418 9.89475 34.9419 10.5763 34.8058C11.1819 34.6828 11.5508 34.0992 11.4349 33.5195C11.3131 32.9212 10.7328 32.5432 10.1486 32.6608Z" fill="white"/>
</svg>
