<svg width="56" height="56" viewBox="0 0 56 56" fill="none" xmlns="http://www.w3.org/2000/svg">
<g clip-path="url(#clip0_10_514)">
<path d="M42.2187 4.375C37.7557 4.375 34.1249 8.00581 34.1249 12.4687C34.1249 14.7709 35.0927 16.85 36.6409 18.3252C36.6805 18.3692 36.723 18.4108 36.77 18.4483C38.2091 19.7609 40.122 20.5625 42.2187 20.5625C44.3154 20.5625 46.2282 19.7609 47.6675 18.4483C47.7144 18.4107 47.757 18.3692 47.7966 18.3252C49.3447 16.85 50.3124 14.7709 50.3124 12.4687C50.3124 8.00581 46.6816 4.375 42.2187 4.375ZM42.2187 18.375C40.9569 18.375 39.7873 17.976 38.8265 17.2993C39.5563 16.1512 40.8175 15.4406 42.2187 15.4406C43.6199 15.4406 44.8811 16.1513 45.6108 17.2993C44.6501 17.976 43.4804 18.375 42.2187 18.375ZM41.093 12.1273V11.5724C41.093 10.9517 41.598 10.4467 42.2187 10.4467C42.8394 10.4467 43.3444 10.9517 43.3444 11.5724V12.1273C43.3444 12.7481 42.8394 13.2531 42.2187 13.2531C41.598 13.2531 41.093 12.7481 41.093 12.1273ZM47.1616 15.6958C46.5867 14.938 45.85 14.3292 45.0099 13.9089C45.3398 13.3939 45.5319 12.7827 45.5319 12.1273V11.5724C45.5319 9.74552 44.0456 8.25923 42.2187 8.25923C40.3918 8.25923 38.9055 9.74552 38.9055 11.5724V12.1273C38.9055 12.7829 39.0977 13.3939 39.4274 13.9089C38.5873 14.3292 37.8507 14.9379 37.2757 15.6958C36.6676 14.7675 36.3124 13.6591 36.3124 12.4687C36.3124 9.21199 38.9619 6.5625 42.2187 6.5625C45.4754 6.5625 48.1249 9.21199 48.1249 12.4687C48.1249 13.6591 47.7698 14.7675 47.1616 15.6958Z" fill="#303030"/>
<path d="M54.833 42.3838C53.3898 40.9406 51.1228 40.734 49.4426 41.8928C49.4302 41.9014 49.418 41.9101 49.4061 41.9191L43.275 46.5299C42.7922 46.8929 42.6952 47.5787 43.0582 48.0615C43.4212 48.5441 44.1069 48.6414 44.5897 48.2781L50.7011 43.6821C51.5103 43.1354 52.5943 43.2385 53.2862 43.9305C53.651 44.2953 53.837 44.7799 53.8101 45.2951C53.7832 45.8102 53.5475 46.2729 53.1466 46.5976L47.5503 51.1303C45.4149 52.8599 42.7256 53.8124 39.9777 53.8124H23.7897C21.592 53.8124 19.4368 53.2106 17.5571 52.0721L13.1524 49.4044V35.5616H21.587C22.7555 35.5616 23.8542 36.0167 24.6788 36.8413L30.4975 42.6872C31.3238 43.5136 32.4225 43.9687 33.5911 43.9687H37.8825C38.7859 43.9687 39.5208 44.7037 39.5208 45.607C39.5208 46.5103 38.7858 47.2453 37.8825 47.2453H29.6406C28.8847 47.2453 28.1503 47.0275 27.5168 46.6154L24.0069 44.3326L23.9941 44.3242C23.4882 43.9943 22.8106 44.1364 22.4804 44.6423C22.1501 45.1482 22.2926 45.8258 22.7984 46.1561L26.3241 48.4492C27.3134 49.0928 28.4602 49.4328 29.6406 49.4328H37.8824C39.992 49.4328 41.7082 47.7166 41.7082 45.607C41.7082 43.4974 39.9919 41.7812 37.8824 41.7812H33.6605L42.7537 36.5312H53.8124C55.0186 36.5312 55.9999 35.5499 55.9999 34.3437V2.1875C55.9999 0.981311 55.0186 0 53.8124 0H30.6249C29.4188 0 28.4374 0.981311 28.4374 2.1875V34.3437C28.4374 35.5499 29.4188 36.5312 30.6249 36.5312H38.3787L31.4426 40.5357L31.4424 40.5358L26.2272 35.2961C24.9877 34.0566 23.3397 33.374 21.5868 33.374H13.1523V31.4453C13.1523 30.2391 12.171 29.2578 10.9648 29.2578H1.09375C0.489671 29.2578 0 29.7475 0 30.3515V54.9061C0 55.5101 0.489671 55.9999 1.09375 55.9999H10.9648C12.171 55.9999 13.1523 55.0186 13.1523 53.8124V51.9619L16.4237 53.9432C18.6453 55.2887 21.1924 55.9999 23.7897 55.9999H39.9777C43.2252 55.9999 46.4036 54.8742 48.9271 52.8302L54.5234 48.2975C55.3994 47.5879 55.9357 46.5353 55.9945 45.4095C56.0535 44.2837 55.63 43.1808 54.833 42.3838ZM30.6249 34.3437V2.1875H53.8124L53.8138 34.3436C53.8138 34.3436 53.8134 34.3437 53.8124 34.3437H30.6249ZM10.9648 53.8124H2.1875V31.4453H10.9648L10.965 34.4641C10.965 34.4653 10.9648 34.4665 10.9648 34.4678C10.9648 34.4691 10.965 34.4702 10.965 34.4715L10.966 49.9673C10.9647 49.995 10.9653 50.0226 10.966 50.05L10.9662 53.8123C10.9662 53.8123 10.9658 53.8124 10.9648 53.8124Z" fill="#303030"/>
<path d="M25.6112 5.5088C25.3092 4.98566 24.6402 4.80639 24.1171 5.10848L14.2708 10.7932C13.2263 11.3964 12.8672 12.7369 13.4702 13.7814L23.0261 30.3328C23.2287 30.6837 23.5963 30.8799 23.9743 30.8799C24.1598 30.8799 24.3479 30.8326 24.5202 30.7331C25.0433 30.431 25.2226 29.7622 24.9205 29.2391L15.3645 12.6876L25.2109 7.00286C25.734 6.70087 25.9133 6.03194 25.6112 5.5088Z" fill="#303030"/>
<path d="M48.9999 23.1874H36.3124C35.7084 23.1874 35.2187 23.6771 35.2187 24.2812C35.2187 24.8853 35.7084 25.3749 36.3124 25.3749H48.9999C49.604 25.3749 50.0937 24.8853 50.0937 24.2812C50.0937 23.6771 49.604 23.1874 48.9999 23.1874Z" fill="#303030"/>
<path d="M49.7732 28.3204C49.5697 28.117 49.2876 27.9999 48.9999 27.9999C48.7123 27.9999 48.4301 28.1169 48.2266 28.3204C48.0232 28.5238 47.9062 28.806 47.9062 29.0937C47.9062 29.3813 48.0232 29.6635 48.2266 29.8669C48.4301 30.0703 48.7123 30.1874 48.9999 30.1874C49.2876 30.1874 49.5697 30.0704 49.7732 29.8669C49.9766 29.6635 50.0937 29.3813 50.0937 29.0937C50.0937 28.806 49.9766 28.5238 49.7732 28.3204Z" fill="#303030"/>
<path d="M44.4381 27.9999H36.3124C35.7084 27.9999 35.2187 28.4897 35.2187 29.0937C35.2187 29.6977 35.7084 30.1874 36.3124 30.1874H44.4381C45.0422 30.1874 45.5318 29.6977 45.5318 29.0937C45.5318 28.4897 45.0422 27.9999 44.4381 27.9999Z" fill="#303030"/>
<path d="M6.57616 40.3098C5.97209 40.3098 5.48241 40.7995 5.48241 41.4035V45.6822C5.48241 46.2862 5.97209 46.776 6.57616 46.776C7.18024 46.776 7.66991 46.2862 7.66991 45.6822V41.4035C7.66991 40.7994 7.18024 40.3098 6.57616 40.3098Z" fill="#303030"/>
<path d="M7.34998 48.674C7.14545 48.4705 6.86436 48.3535 6.57561 48.3535C6.28795 48.3535 6.00686 48.4705 5.80233 48.674C5.59889 48.8774 5.48296 49.1596 5.48296 49.4473C5.48296 49.736 5.59889 50.0171 5.80233 50.2205C6.00577 50.4239 6.28795 50.541 6.57561 50.541C6.86436 50.541 7.14545 50.424 7.34998 50.2205C7.55342 50.0171 7.66936 49.7359 7.66936 49.4473C7.66936 49.1596 7.55342 48.8774 7.34998 48.674Z" fill="#303030"/>
</g>
<defs>
<clipPath id="clip0_10_514">
<rect width="56" height="56" fill="white"/>
</clipPath>
</defs>
</svg>
