<svg width="56" height="56" viewBox="0 0 56 56" fill="none" xmlns="http://www.w3.org/2000/svg">
<g clip-path="url(#clip0_441_6232)">
<path d="M45.2821 16.2695C45.886 16.2695 46.3758 15.7799 46.3758 15.1758V3.28125C46.3758 1.47197 44.9039 0 43.0946 0H3.28207C1.47279 0 0.000823975 1.47197 0.000823975 3.28125V52.7188C0.000823975 54.528 1.47279 56 3.28207 56H43.0946C44.9039 56 46.3758 54.528 46.3758 52.7188V44.6609C46.3758 44.0568 45.886 43.5671 45.2821 43.5671C44.6781 43.5671 44.1883 44.0568 44.1883 44.6609V52.7188C44.1883 53.3218 43.6977 53.8125 43.0946 53.8125H3.28207C2.67898 53.8125 2.18832 53.3218 2.18832 52.7188V3.28125C2.18832 2.67816 2.67898 2.1875 3.28207 2.1875H43.0946C43.6977 2.1875 44.1883 2.67816 44.1883 3.28125V15.1758C44.1883 15.7799 44.6781 16.2695 45.2821 16.2695Z" fill="white"/>
<path d="M23.1883 5.90625C17.6398 5.90625 13.1258 10.4203 13.1258 15.9688C13.1258 18.8472 14.3409 21.4468 16.2847 23.2825C16.3212 23.3215 16.3599 23.3583 16.4022 23.3919C18.1928 25.0303 20.5757 26.0311 23.1882 26.0311C25.8006 26.0311 28.1835 25.0301 29.9741 23.3919C30.0164 23.3583 30.0552 23.3214 30.0916 23.2825C32.0356 21.4468 33.2508 18.8472 33.2508 15.9688C33.2508 10.4203 28.7367 5.90625 23.1883 5.90625ZM23.1883 23.8438C21.4023 23.8438 19.754 23.2453 18.4314 22.2394C19.3927 20.5348 21.1866 19.4688 23.1883 19.4688C25.1899 19.4688 26.9838 20.5348 27.9451 22.2394C26.6224 23.2453 24.9742 23.8438 23.1883 23.8438ZM21.4383 15.5312V14.8203C21.4383 13.8554 22.2234 13.0703 23.1883 13.0703C24.1532 13.0703 24.9383 13.8554 24.9383 14.8203V15.5312C24.9383 16.4962 24.1532 17.2812 23.1883 17.2812C22.2234 17.2812 21.4383 16.4962 21.4383 15.5312ZM29.5254 20.6372C28.7188 19.4409 27.6009 18.5104 26.3029 17.936C26.8181 17.2702 27.1258 16.4362 27.1258 15.5312V14.8203C27.1258 12.6491 25.3595 10.8828 23.1883 10.8828C21.0171 10.8828 19.2508 12.6491 19.2508 14.8203V15.5312C19.2508 16.4362 19.5584 17.2702 20.0736 17.936C18.7756 18.5104 17.6577 19.4409 16.8511 20.6372C15.8854 19.3298 15.3133 17.7151 15.3133 15.9688C15.3133 11.6265 18.846 8.09375 23.1883 8.09375C27.5306 8.09375 31.0633 11.6265 31.0633 15.9688C31.0633 17.7151 30.4911 19.3298 29.5254 20.6372Z" fill="white"/>
<path d="M29.0945 47.9062H23.1883C22.5843 47.9062 22.0945 48.3959 22.0945 49C22.0945 49.6041 22.5843 50.0938 23.1883 50.0938H29.0945C29.6985 50.0938 30.1883 49.6041 30.1883 49C30.1883 48.3959 29.6985 47.9062 29.0945 47.9062Z" fill="white"/>
<path d="M29.0945 41.7812H13.5633C12.9593 41.7812 12.4695 42.2709 12.4695 42.875C12.4695 43.4791 12.9593 43.9688 13.5633 43.9688H29.0945C29.6985 43.9688 30.1883 43.4791 30.1883 42.875C30.1883 42.2709 29.6985 41.7812 29.0945 41.7812Z" fill="white"/>
<path d="M29.0945 35.6562H13.5633C12.9593 35.6562 12.4695 36.1459 12.4695 36.75C12.4695 37.3541 12.9593 37.8438 13.5633 37.8438H29.0945C29.6985 37.8438 30.1883 37.3541 30.1883 36.75C30.1883 36.1459 29.6985 35.6562 29.0945 35.6562Z" fill="white"/>
<path d="M9.66504 29.8517C9.46171 29.6483 9.17953 29.5312 8.89078 29.5312C8.60301 29.5312 8.32082 29.6483 8.1175 29.8517C7.91406 30.0552 7.79703 30.3373 7.79703 30.625C7.79703 30.9127 7.91395 31.1948 8.1175 31.3983C8.32203 31.6017 8.60301 31.7188 8.89078 31.7188C9.17953 31.7188 9.46062 31.6017 9.66504 31.3983C9.86848 31.1948 9.98562 30.9127 9.98562 30.625C9.98562 30.3373 9.86859 30.0552 9.66504 29.8517Z" fill="white"/>
<path d="M9.66504 35.9767C9.46062 35.7733 9.17953 35.6562 8.89078 35.6562C8.60301 35.6562 8.32203 35.7733 8.1175 35.9767C7.91406 36.1802 7.79703 36.4623 7.79703 36.75C7.79703 37.0377 7.91395 37.3198 8.1175 37.5233C8.32203 37.7267 8.60301 37.8438 8.89078 37.8438C9.17953 37.8438 9.46062 37.7267 9.66504 37.5233C9.86848 37.3198 9.98562 37.0377 9.98562 36.75C9.98562 36.4623 9.86859 36.1802 9.66504 35.9767Z" fill="white"/>
<path d="M9.66504 42.1017C9.46062 41.8983 9.17953 41.7812 8.89078 41.7812C8.60301 41.7812 8.32203 41.8983 8.1175 42.1017C7.91406 42.3052 7.79703 42.5873 7.79703 42.875C7.79703 43.1627 7.91395 43.4448 8.1175 43.6483C8.32082 43.8517 8.60301 43.9688 8.89078 43.9688C9.17953 43.9688 9.46171 43.8517 9.66504 43.6483C9.86848 43.4448 9.98562 43.1627 9.98562 42.875C9.98562 42.5873 9.86859 42.3052 9.66504 42.1017Z" fill="white"/>
<path d="M29.0945 29.5312H13.5633C12.9593 29.5312 12.4695 30.0209 12.4695 30.625C12.4695 31.2291 12.9593 31.7188 13.5633 31.7188H29.0945C29.6985 31.7188 30.1883 31.2291 30.1883 30.625C30.1883 30.0209 29.6985 29.5312 29.0945 29.5312Z" fill="white"/>
<path d="M53.7033 14.2538C52.6408 13.6403 51.4029 13.4773 50.2175 13.7948C49.0323 14.1124 48.0415 14.8726 47.4282 15.9352L33.6642 39.7749C33.5888 39.9056 33.5412 40.0505 33.5244 40.2005L32.5556 48.8787C32.5075 49.3105 32.7194 49.73 33.0957 49.9473C33.2655 50.0453 33.4542 50.0939 33.6424 50.0939C33.8713 50.0939 34.0992 50.0222 34.2911 49.8808L41.3222 44.7026C41.4437 44.6131 41.5454 44.4994 41.6208 44.3687L55.3847 20.529C56.6512 18.3354 55.897 15.5203 53.7033 14.2538ZM35.0069 46.6368L35.5129 42.1052L38.6784 43.9329L35.0069 46.6368ZM40.2733 42.3277L36.1056 39.9214L47.1508 20.7907L51.3185 23.1969L40.2733 42.3277ZM53.4903 19.4352L52.4122 21.3025L48.2444 18.8963L49.3225 17.0289C49.6439 16.4723 50.1628 16.0742 50.7836 15.9078C51.4046 15.7414 52.053 15.8269 52.6095 16.1482C53.1661 16.4696 53.5642 16.9885 53.7306 17.6093C53.8969 18.2301 53.8116 18.8786 53.4903 19.4352Z" fill="white"/>
</g>
<defs>
<clipPath id="clip0_441_6232">
<rect width="56" height="56" fill="white"/>
</clipPath>
</defs>
</svg>
