<svg width="56" height="56" viewBox="0 0 56 56" fill="none" xmlns="http://www.w3.org/2000/svg">
<g clip-path="url(#clip0_11_554)">
<path d="M51.0119 9.66996C43.3069 7.55881 35.5568 4.27155 28.5991 0.163652C28.2295 -0.0545507 27.7709 -0.0545507 27.4014 0.163652C20.2431 4.38957 12.9117 7.49898 4.98804 9.66996C4.47616 9.81007 4.12135 10.2754 4.12135 10.8061V22.8424C4.12135 35.2371 9.83936 43.4415 14.6363 48.1414C19.8006 53.2017 25.8162 56 28.0003 56C30.1842 56 36.1998 53.2017 41.364 48.1414C46.1609 43.4416 51.8785 35.2372 51.8785 22.8424V10.806C51.8785 10.2754 51.5237 9.81007 51.0119 9.66996ZM49.5226 22.8423C49.5226 34.4188 44.1894 42.0745 39.7151 46.4585C34.6367 51.4345 29.207 53.6439 28.0003 53.6439C26.7935 53.6439 21.3635 51.4345 16.285 46.4585C11.8108 42.0744 6.4774 34.4188 6.4774 22.8423V11.7003C14.0547 9.54888 21.1113 6.54644 28.0005 2.54299C34.7176 6.44023 42.1264 9.59198 49.5226 11.6998V22.8423Z" fill="#303030"/>
<path d="M17.5588 11.5685C17.3204 10.9631 16.6364 10.6657 16.0309 10.9042C13.9266 11.7334 11.7666 12.4966 9.61119 13.1728C9.11999 13.327 8.78574 13.782 8.78574 14.2967V18.8457C8.78574 19.4963 9.31325 20.0237 9.9637 20.0237C10.6142 20.0237 11.1417 19.4963 11.1417 18.8457V15.1576C13.0753 14.532 15.0069 13.84 16.8946 13.0961C17.5 12.8578 17.7973 12.1739 17.5588 11.5685Z" fill="#303030"/>
<path d="M19.7965 11.7919C19.9545 11.7919 20.115 11.7601 20.2689 11.6929L20.2905 11.6835C20.8865 11.4223 21.1549 10.7286 20.8938 10.1328C20.6323 9.53684 19.9346 9.26723 19.3393 9.5282L19.3203 9.5364C18.724 9.79682 18.4547 10.49 18.7151 11.0861C18.9084 11.5287 19.3421 11.7919 19.7965 11.7919Z" fill="#303030"/>
<path d="M42.0351 37.9841C41.4908 37.6283 40.7608 37.7813 40.4046 38.3258C39.4339 39.8116 38.2951 41.2343 37.0193 42.5542C35.9702 43.6394 34.8333 44.6509 33.6404 45.5603C33.1232 45.9547 33.0236 46.6939 33.4179 47.2113C33.6499 47.5153 34.0007 47.6752 34.3555 47.6752C34.6046 47.6752 34.8557 47.5966 35.0689 47.4338C36.3557 46.4526 37.5818 45.3618 38.713 44.1917C40.0923 42.765 41.325 41.225 42.3769 39.6145C42.7329 39.0698 42.5797 38.3398 42.0351 37.9841Z" fill="#303030"/>
<path d="M30.9047 47.4078L30.8371 47.4476C30.2742 47.7736 30.0818 48.4942 30.4077 49.0571C30.6262 49.4345 31.0215 49.6451 31.4283 49.6451C31.6285 49.6451 31.8317 49.5941 32.0173 49.4863L32.0953 49.4405C32.6567 49.1117 32.8453 48.3902 32.5165 47.8287C32.1875 47.2675 31.4658 47.0793 30.9047 47.4078Z" fill="#303030"/>
<path d="M19.9706 25.5958C19.2474 24.8724 18.2854 24.4743 17.2623 24.4743C16.2392 24.4743 15.2772 24.8725 14.5535 25.5958C13.0602 27.0894 13.0602 29.5197 14.5535 31.0132L21.5093 37.9688C22.2327 38.692 23.1947 39.0902 24.2179 39.0902C25.2411 39.0902 26.203 38.692 26.9266 37.9686L41.4473 23.4478C42.9404 21.9538 42.9404 19.5238 41.447 18.0308C40.7236 17.3074 39.7617 16.9092 38.7384 16.9092C37.7152 16.9092 36.7532 17.3075 36.0297 18.0308L24.2178 29.8427L19.9706 25.5958ZM37.6957 19.6968C37.9741 19.4184 38.3445 19.2652 38.7385 19.2652C39.1327 19.2652 39.5028 19.4184 39.7814 19.6968C40.3561 20.2715 40.3561 21.2071 39.7812 21.7821L25.2607 36.3027C24.9823 36.5811 24.6119 36.7343 24.2179 36.7343C23.8239 36.7343 23.4535 36.5811 23.175 36.3027L16.2194 29.3473C15.6444 28.7724 15.6444 27.8368 16.2192 27.262C16.4977 26.9836 16.8681 26.8302 17.2622 26.8302C17.6563 26.8302 18.0265 26.9834 18.3049 27.2618L23.3848 32.3418C23.6058 32.5626 23.9053 32.6868 24.2178 32.6868C24.5303 32.6868 24.8297 32.5627 25.0506 32.3418L37.6957 19.6968Z" fill="#303030"/>
</g>
<defs>
<clipPath id="clip0_11_554">
<rect width="56" height="56" fill="white"/>
</clipPath>
</defs>
</svg>
