<svg width="24" height="24" viewBox="0 0 24 24" fill="none" xmlns="http://www.w3.org/2000/svg">
<g clip-path="url(#clip0_628_291)">
<path d="M12.6209 0.816409C11.0344 0.743094 9.44955 0.994062 7.96329 1.55398C6.47703 2.11389 5.12054 2.97099 3.97674 4.0729C2.83294 5.17481 1.92584 6.49838 1.31089 7.96273C0.695928 9.42707 0.386026 11.0014 0.400118 12.5896C0.393353 14.5917 0.895119 16.5627 1.85837 18.3179C2.82162 20.0731 4.21481 21.5549 5.90732 22.6244C6.53051 23.0074 7.24908 23.2069 7.98052 23.2H16.0205C16.7515 23.2069 17.4696 23.0077 18.0925 22.6252C19.7775 21.5605 21.166 20.087 22.1289 18.3419C23.0918 16.5967 23.5979 14.6364 23.6001 12.6432C23.6273 6.42321 18.7325 1.13961 12.6209 0.816409ZM2.88412 8.61201C2.95163 8.37016 3.0331 8.13243 3.12812 7.90001C3.13212 7.89201 3.13612 7.88001 3.14012 7.87201C3.74252 6.69216 4.57154 5.64259 5.57977 4.78329C6.58801 3.92399 7.7557 3.2718 9.01612 2.86401C9.13612 2.82401 9.26412 2.78801 9.38812 2.75601C11.6824 2.13448 14.1239 2.36173 16.2641 3.39601C16.2681 3.39601 16.2721 3.40001 16.2761 3.40001C18.2775 4.3975 19.9014 6.0172 20.9041 8.01601C20.9081 8.02401 20.9081 8.02801 20.9121 8.03601C20.9857 8.22198 21.0497 8.41156 21.1041 8.60401C21.1241 8.67412 21.1275 8.74794 21.1139 8.81958C21.1003 8.89121 21.0702 8.95868 21.0259 9.01659C20.9816 9.0745 20.9243 9.12124 20.8587 9.15309C20.7932 9.18494 20.721 9.201 20.6481 9.20001H20.0001C18.2618 9.21423 16.5289 9.00451 14.8441 8.57601C12.9943 8.01068 11.0179 8.01068 9.16812 8.57601C7.47925 9.00428 5.74239 9.21399 4.00012 9.20001H3.34412C3.27181 9.20111 3.20024 9.18546 3.13499 9.15428C3.06975 9.12309 3.01261 9.07723 2.96806 9.02027C2.9235 8.96332 2.89274 8.89682 2.87817 8.82599C2.86361 8.75516 2.86565 8.68192 2.88412 8.61201ZM10.1721 21.6H7.98012C7.55031 21.6064 7.12742 21.4913 6.76012 21.268C6.30184 20.9788 5.86715 20.6538 5.46012 20.296C5.45612 20.296 5.45612 20.296 5.45212 20.288C5.01188 19.9031 4.60631 19.4803 4.24012 19.0244C3.53954 18.1486 2.98815 17.1632 2.60812 16.108C2.60412 16.096 2.60012 16.088 2.59612 16.076C2.44292 15.644 2.24732 14.9364 2.12292 14.4696C2.07567 14.3078 2.08862 14.1344 2.15936 13.9815C2.2301 13.8285 2.35386 13.7064 2.50772 13.6376C2.5606 13.6139 2.61817 13.6024 2.67612 13.604L7.53612 13.992C8.28277 14.0645 8.9802 14.397 9.50661 14.9315C10.033 15.4659 10.3549 16.1683 10.4161 16.916L10.7961 20.884C10.8068 20.9729 10.7986 21.063 10.7723 21.1485C10.7459 21.2341 10.7019 21.3131 10.6431 21.3806C10.5843 21.4481 10.512 21.5025 10.4309 21.5403C10.3498 21.5781 10.2616 21.5984 10.1721 21.6ZM9.60012 12C9.60012 11.5253 9.74088 11.0613 10.0046 10.6666C10.2683 10.272 10.6431 9.96435 11.0817 9.7827C11.5202 9.60105 12.0028 9.55352 12.4683 9.64612C12.9339 9.73873 13.3615 9.96731 13.6972 10.303C14.0328 10.6386 14.2614 11.0662 14.354 11.5318C14.4466 11.9973 14.3991 12.4799 14.2174 12.9184C14.0358 13.357 13.7282 13.7318 13.3335 13.9955C12.9388 14.2593 12.4748 14.4 12.0001 14.4C11.3638 14.3994 10.7537 14.1463 10.3038 13.6964C9.85381 13.2464 9.60075 12.6363 9.60012 12ZM21.3801 16.136C20.5233 18.5272 18.3969 20.7572 16.9681 21.412C16.6682 21.5386 16.3456 21.6026 16.0201 21.6H13.8281C13.7386 21.5984 13.6505 21.5781 13.5693 21.5403C13.4882 21.5025 13.4159 21.4481 13.3571 21.3806C13.2983 21.3131 13.2543 21.2341 13.2279 21.1485C13.2016 21.063 13.1935 20.9729 13.2041 20.884L13.5841 16.916C13.6453 16.1683 13.9672 15.4659 14.4936 14.9315C15.02 14.397 15.7175 14.0645 16.4641 13.992L21.3241 13.604C21.3821 13.6024 21.4396 13.6139 21.4925 13.6376C21.6464 13.7064 21.7701 13.8285 21.8408 13.9815C21.9114 14.1345 21.9243 14.3079 21.8769 14.4696C21.7481 14.9508 21.5425 15.6896 21.3801 16.136Z" fill="#EB1922"/>
<path d="M12.0001 13.6C12.8838 13.6 13.6001 12.8837 13.6001 12C13.6001 11.1164 12.8838 10.4 12.0001 10.4C11.1165 10.4 10.4001 11.1164 10.4001 12C10.4001 12.8837 11.1165 13.6 12.0001 13.6Z" fill="#EB1922"/>
</g>
<defs>
<clipPath id="clip0_628_291">
<rect width="24" height="24" fill="white"/>
</clipPath>
</defs>
</svg>
