<svg width="56" height="56" viewBox="0 0 56 56" fill="none" xmlns="http://www.w3.org/2000/svg">
<g clip-path="url(#clip0_9_465)">
<path d="M12.8333 44.3333C13.6491 44.3264 14.4489 44.1057 15.1528 43.6933C15.8567 43.2809 16.4402 42.6911 16.845 41.9829C17.2499 41.2746 17.4621 40.4726 17.4603 39.6568C17.4586 38.8409 17.243 38.0398 16.835 37.3333L21 33.1683C21.7561 33.6276 22.6291 33.8576 23.5133 33.8307C24.3975 33.8038 25.2549 33.521 25.9817 33.0167L28.5367 35.245C28.1653 35.9779 27.9939 36.7959 28.0401 37.6163C28.0862 38.4367 28.3481 39.2304 28.7993 39.9171C29.2505 40.6038 29.875 41.1592 30.6097 41.5271C31.3444 41.895 32.1632 42.0625 32.9833 42.0125C33.8035 41.9625 34.5959 41.6968 35.2804 41.2424C35.965 40.7879 36.5174 40.1608 36.8819 39.4244C37.2463 38.6879 37.4099 37.8683 37.356 37.0484C37.3021 36.2285 37.0327 35.4374 36.575 34.755L41.055 29.7967C42.0664 30.3131 43.2314 30.443 44.3317 30.1621C45.432 29.8812 46.3921 29.2087 47.0321 28.2707C47.6721 27.3326 47.9482 26.1934 47.8085 25.0664C47.6688 23.9395 47.123 22.9021 46.2733 22.1487C45.4236 21.3953 44.3284 20.9776 43.1928 20.9738C42.0572 20.9701 40.9592 21.3805 40.1045 22.1282C39.2498 22.8759 38.6971 23.9097 38.5499 25.0357C38.4028 26.1617 38.6712 27.3027 39.305 28.245L34.825 33.2033C34.0822 32.809 33.2453 32.6265 32.4058 32.6759C31.5662 32.7253 30.7564 33.0046 30.065 33.4833L27.51 31.255C27.8787 30.532 28.0524 29.7253 28.0141 28.9147C27.9757 28.104 27.7267 27.3174 27.2914 26.6324C26.8562 25.9474 26.2498 25.3878 25.5322 25.0087C24.8146 24.6297 24.0105 24.4443 23.1994 24.471C22.3882 24.4976 21.5981 24.7354 20.9069 25.1607C20.2157 25.586 19.6474 26.1843 19.258 26.8963C18.8687 27.6084 18.6718 28.4097 18.6867 29.2212C18.7017 30.0326 18.928 30.8261 19.3433 31.5233L15.1667 35.665C14.5476 35.2937 13.8508 35.0711 13.1311 35.0147C12.4114 34.9583 11.6884 35.0697 11.019 35.34C10.3497 35.6104 9.75213 36.0323 9.27343 36.5726C8.79473 37.113 8.44793 37.7571 8.26029 38.4541C8.07264 39.1512 8.04928 39.8824 8.19204 40.59C8.3348 41.2976 8.63979 41.9625 9.08302 42.5323C9.52624 43.1022 10.0956 43.5614 10.7464 43.8739C11.3971 44.1864 12.1115 44.3437 12.8333 44.3333ZM43.1667 23.3333C43.6282 23.3333 44.0793 23.4702 44.463 23.7266C44.8467 23.983 45.1458 24.3474 45.3224 24.7737C45.499 25.2001 45.5452 25.6693 45.4552 26.1219C45.3651 26.5745 45.1429 26.9903 44.8166 27.3166C44.4903 27.6429 44.0745 27.8651 43.6219 27.9552C43.1693 28.0452 42.7001 27.999 42.2738 27.8224C41.8474 27.6458 41.483 27.3467 41.2266 26.963C40.9702 26.5793 40.8333 26.1282 40.8333 25.6667C40.8333 25.0478 41.0792 24.4543 41.5168 24.0168C41.9543 23.5792 42.5478 23.3333 43.1667 23.3333ZM35 37.3333C35 37.7948 34.8632 38.2459 34.6068 38.6297C34.3504 39.0134 33.986 39.3124 33.5596 39.4891C33.1332 39.6657 32.6641 39.7119 32.2115 39.6218C31.7588 39.5318 31.3431 39.3096 31.0168 38.9832C30.6904 38.6569 30.4682 38.2412 30.3782 37.7885C30.2881 37.3359 30.3344 36.8668 30.511 36.4404C30.6876 36.014 30.9866 35.6496 31.3703 35.3932C31.7541 35.1368 32.2052 35 32.6667 35C33.2855 35 33.879 35.2458 34.3166 35.6834C34.7542 36.121 35 36.7145 35 37.3333ZM23.3333 26.8333C23.7796 26.8358 24.2157 26.9662 24.5901 27.2091C24.9645 27.452 25.2613 27.7971 25.4455 28.2035C25.6297 28.61 25.6935 29.0607 25.6293 29.5023C25.5651 29.9439 25.3756 30.3578 25.0833 30.695C24.827 30.9907 24.5005 31.2171 24.1337 31.3536C23.767 31.49 23.3718 31.532 22.9846 31.4757C22.5973 31.4194 22.2305 31.2666 21.9178 31.0314C21.605 30.7962 21.3565 30.4862 21.195 30.1297C21.0334 29.7733 20.9642 29.382 20.9935 28.9918C21.0228 28.6016 21.1498 28.2251 21.3627 27.8968C21.5757 27.5685 21.8678 27.299 22.2121 27.1132C22.5565 26.9274 22.9421 26.8311 23.3333 26.8333ZM12.8333 37.3333C13.2948 37.3333 13.746 37.4702 14.1297 37.7266C14.5134 37.983 14.8125 38.3474 14.9891 38.7737C15.1657 39.2001 15.2119 39.6693 15.1218 40.1219C15.0318 40.5745 14.8096 40.9903 14.4833 41.3166C14.1569 41.6429 13.7412 41.8651 13.2886 41.9552C12.8359 42.0452 12.3668 41.999 11.9404 41.8224C11.5141 41.6458 11.1496 41.3467 10.8932 40.963C10.6369 40.5793 10.5 40.1282 10.5 39.6667C10.5 39.0478 10.7458 38.4543 11.1834 38.0167C11.621 37.5792 12.2145 37.3333 12.8333 37.3333Z" fill="#303030"/>
<path d="M52.5 0H3.5C2.57174 0 1.6815 0.368749 1.02513 1.02513C0.368749 1.6815 0 2.57174 0 3.5L0 52.5C0 53.4283 0.368749 54.3185 1.02513 54.9749C1.6815 55.6312 2.57174 56 3.5 56H52.5C53.4283 56 54.3185 55.6312 54.9749 54.9749C55.6312 54.3185 56 53.4283 56 52.5V3.5C56 2.57174 55.6312 1.6815 54.9749 1.02513C54.3185 0.368749 53.4283 0 52.5 0ZM2.33333 3.5C2.33333 3.19058 2.45625 2.89383 2.67504 2.67504C2.89383 2.45625 3.19058 2.33333 3.5 2.33333H52.5C52.8094 2.33333 53.1062 2.45625 53.325 2.67504C53.5438 2.89383 53.6667 3.19058 53.6667 3.5V9.33333H2.33333V3.5ZM53.6667 52.5C53.6667 52.8094 53.5438 53.1062 53.325 53.325C53.1062 53.5438 52.8094 53.6667 52.5 53.6667H3.5C3.19058 53.6667 2.89383 53.5438 2.67504 53.325C2.45625 53.1062 2.33333 52.8094 2.33333 52.5V11.6667H53.6667V52.5Z" fill="#303030"/>
<path d="M5.00499 5.00501C4.84279 5.16855 4.73262 5.37644 4.68838 5.60249C4.64414 5.82854 4.6678 6.06263 4.75638 6.27525C4.84496 6.48787 4.9945 6.66952 5.18615 6.79729C5.3778 6.92506 5.60299 6.99325 5.83332 6.99325C6.06366 6.99325 6.28884 6.92506 6.48049 6.79729C6.67214 6.66952 6.82168 6.48787 6.91027 6.27525C6.99885 6.06263 7.02251 5.82854 6.97827 5.60249C6.93403 5.37644 6.82386 5.16855 6.66166 5.00501C6.5532 4.89566 6.42417 4.80887 6.282 4.74964C6.13983 4.69041 5.98734 4.65991 5.83332 4.65991C5.67931 4.65991 5.52682 4.69041 5.38465 4.74964C5.24248 4.80887 5.11345 4.89566 5.00499 5.00501Z" fill="#303030"/>
<path d="M10.9433 4.76003C10.6659 4.67552 10.3669 4.6974 10.1047 4.8214C9.84247 4.94539 9.63586 5.16261 9.52513 5.43069C9.4144 5.69877 9.4075 5.99848 9.50578 6.27137C9.60405 6.54426 9.80045 6.77076 10.0567 6.90669C10.3341 6.9912 10.6331 6.96932 10.8953 6.84532C11.1575 6.72133 11.3642 6.5041 11.4749 6.23603C11.5856 5.96795 11.5925 5.66824 11.4942 5.39535C11.396 5.12246 11.1996 4.89596 10.9433 4.76003Z" fill="#303030"/>
<path d="M15.995 5.00497C15.8318 4.84044 15.6233 4.72822 15.3961 4.68264C15.1689 4.63706 14.9333 4.66018 14.7193 4.74904C14.5052 4.8379 14.3225 4.98848 14.1944 5.18159C14.0663 5.37469 13.9986 5.60157 14 5.8333C14.0009 6.02438 14.0488 6.2123 14.1394 6.38055C14.23 6.5488 14.3605 6.69222 14.5195 6.79822C14.6785 6.90421 14.8611 6.96953 15.0512 6.98843C15.2414 7.00734 15.4332 6.97925 15.61 6.90664C15.7875 6.83383 15.9444 6.71836 16.0666 6.57046C16.1888 6.42255 16.2727 6.24678 16.3108 6.05871C16.3489 5.87064 16.34 5.67609 16.2849 5.49228C16.2298 5.30848 16.1302 5.1411 15.995 5.00497Z" fill="#303030"/>
<path d="M47.8333 4.66669H29.1667C28.8572 4.66669 28.5605 4.7896 28.3417 5.0084C28.1229 5.22719 28 5.52393 28 5.83335C28 6.14277 28.1229 6.43952 28.3417 6.65831C28.5605 6.8771 28.8572 7.00002 29.1667 7.00002H47.8333C48.1428 7.00002 48.4395 6.8771 48.6583 6.65831C48.8771 6.43952 49 6.14277 49 5.83335C49 5.52393 48.8771 5.22719 48.6583 5.0084C48.4395 4.7896 48.1428 4.66669 47.8333 4.66669Z" fill="#303030"/>
</g>
<defs>
<clipPath id="clip0_9_465">
<rect width="56" height="56" fill="white"/>
</clipPath>
</defs>
</svg>
