<svg width="13" height="15" viewBox="0 0 13 15" fill="none" xmlns="http://www.w3.org/2000/svg">
<path d="M6.5 11.875C6.62361 11.875 6.74445 11.8383 6.84723 11.7697C6.95001 11.701 7.03012 11.6034 7.07743 11.4892C7.12473 11.375 7.13711 11.2493 7.11299 11.1281C7.08888 11.0068 7.02935 10.8955 6.94194 10.8081C6.85453 10.7206 6.74317 10.6611 6.62193 10.637C6.50069 10.6129 6.37503 10.6253 6.26082 10.6726C6.14662 10.7199 6.04901 10.8 5.98033 10.9028C5.91166 11.0055 5.875 11.1264 5.875 11.25C5.875 11.4158 5.94085 11.5747 6.05806 11.6919C6.17527 11.8092 6.33424 11.875 6.5 11.875ZM9.625 11.875C9.74861 11.875 9.86945 11.8383 9.97223 11.7697C10.075 11.701 10.1551 11.6034 10.2024 11.4892C10.2497 11.375 10.2621 11.2493 10.238 11.1281C10.2139 11.0068 10.1544 10.8955 10.0669 10.8081C9.97954 10.7206 9.86817 10.6611 9.74693 10.637C9.6257 10.6129 9.50003 10.6253 9.38582 10.6726C9.27162 10.7199 9.17401 10.8 9.10533 10.9028C9.03666 11.0055 9 11.1264 9 11.25C9 11.4158 9.06585 11.5747 9.18306 11.6919C9.30027 11.8092 9.45924 11.875 9.625 11.875ZM9.625 9.375C9.74861 9.375 9.86945 9.33834 9.97223 9.26967C10.075 9.20099 10.1551 9.10338 10.2024 8.98918C10.2497 8.87497 10.2621 8.74931 10.238 8.62807C10.2139 8.50683 10.1544 8.39547 10.0669 8.30806C9.97954 8.22065 9.86817 8.16112 9.74693 8.13701C9.6257 8.11289 9.50003 8.12527 9.38582 8.17257C9.27162 8.21988 9.17401 8.29999 9.10533 8.40277C9.03666 8.50555 9 8.62639 9 8.75C9 8.91576 9.06585 9.07473 9.18306 9.19194C9.30027 9.30915 9.45924 9.375 9.625 9.375ZM6.5 9.375C6.62361 9.375 6.74445 9.33834 6.84723 9.26967C6.95001 9.20099 7.03012 9.10338 7.07743 8.98918C7.12473 8.87497 7.13711 8.74931 7.11299 8.62807C7.08888 8.50683 7.02935 8.39547 6.94194 8.30806C6.85453 8.22065 6.74317 8.16112 6.62193 8.13701C6.50069 8.11289 6.37503 8.12527 6.26082 8.17257C6.14662 8.21988 6.04901 8.29999 5.98033 8.40277C5.91166 8.50555 5.875 8.62639 5.875 8.75C5.875 8.91576 5.94085 9.07473 6.05806 9.19194C6.17527 9.30915 6.33424 9.375 6.5 9.375ZM10.875 1.875H10.25V1.25C10.25 1.08424 10.1842 0.925268 10.0669 0.808058C9.94973 0.690848 9.79076 0.625 9.625 0.625C9.45924 0.625 9.30027 0.690848 9.18306 0.808058C9.06585 0.925268 9 1.08424 9 1.25V1.875H4V1.25C4 1.08424 3.93415 0.925268 3.81694 0.808058C3.69973 0.690848 3.54076 0.625 3.375 0.625C3.20924 0.625 3.05027 0.690848 2.93306 0.808058C2.81585 0.925268 2.75 1.08424 2.75 1.25V1.875H2.125C1.62772 1.875 1.15081 2.07254 0.799175 2.42417C0.447544 2.77581 0.25 3.25272 0.25 3.75V12.5C0.25 12.9973 0.447544 13.4742 0.799175 13.8258C1.15081 14.1775 1.62772 14.375 2.125 14.375H10.875C11.3723 14.375 11.8492 14.1775 12.2008 13.8258C12.5525 13.4742 12.75 12.9973 12.75 12.5V3.75C12.75 3.25272 12.5525 2.77581 12.2008 2.42417C11.8492 2.07254 11.3723 1.875 10.875 1.875ZM11.5 12.5C11.5 12.6658 11.4342 12.8247 11.3169 12.9419C11.1997 13.0592 11.0408 13.125 10.875 13.125H2.125C1.95924 13.125 1.80027 13.0592 1.68306 12.9419C1.56585 12.8247 1.5 12.6658 1.5 12.5V6.875H11.5V12.5ZM11.5 5.625H1.5V3.75C1.5 3.58424 1.56585 3.42527 1.68306 3.30806C1.80027 3.19085 1.95924 3.125 2.125 3.125H2.75V3.75C2.75 3.91576 2.81585 4.07473 2.93306 4.19194C3.05027 4.30915 3.20924 4.375 3.375 4.375C3.54076 4.375 3.69973 4.30915 3.81694 4.19194C3.93415 4.07473 4 3.91576 4 3.75V3.125H9V3.75C9 3.91576 9.06585 4.07473 9.18306 4.19194C9.30027 4.30915 9.45924 4.375 9.625 4.375C9.79076 4.375 9.94973 4.30915 10.0669 4.19194C10.1842 4.07473 10.25 3.91576 10.25 3.75V3.125H10.875C11.0408 3.125 11.1997 3.19085 11.3169 3.30806C11.4342 3.42527 11.5 3.58424 11.5 3.75V5.625ZM3.375 9.375C3.49861 9.375 3.61945 9.33834 3.72223 9.26967C3.82501 9.20099 3.90512 9.10338 3.95243 8.98918C3.99973 8.87497 4.01211 8.74931 3.98799 8.62807C3.96388 8.50683 3.90435 8.39547 3.81694 8.30806C3.72953 8.22065 3.61817 8.16112 3.49693 8.13701C3.37569 8.11289 3.25003 8.12527 3.13582 8.17257C3.02162 8.21988 2.92401 8.29999 2.85533 8.40277C2.78666 8.50555 2.75 8.62639 2.75 8.75C2.75 8.91576 2.81585 9.07473 2.93306 9.19194C3.05027 9.30915 3.20924 9.375 3.375 9.375ZM3.375 11.875C3.49861 11.875 3.61945 11.8383 3.72223 11.7697C3.82501 11.701 3.90512 11.6034 3.95243 11.4892C3.99973 11.375 4.01211 11.2493 3.98799 11.1281C3.96388 11.0068 3.90435 10.8955 3.81694 10.8081C3.72953 10.7206 3.61817 10.6611 3.49693 10.637C3.37569 10.6129 3.25003 10.6253 3.13582 10.6726C3.02162 10.7199 2.92401 10.8 2.85533 10.9028C2.78666 11.0055 2.75 11.1264 2.75 11.25C2.75 11.4158 2.81585 11.5747 2.93306 11.6919C3.05027 11.8092 3.20924 11.875 3.375 11.875Z" fill="#818181"/>
</svg>
